<svg id="visual" viewBox="0 0 900 100" width="900" height="100" xmlns="http://www.w3.org/2000/svg" xmlns:xlink="http://www.w3.org/1999/xlink" version="1.1"><path d="M0 80L13.7 80.2C27.3 80.3 54.7 80.7 82 77.8C109.3 75 136.7 69 163.8 65.8C191 62.7 218 62.3 245.2 64.5C272.3 66.7 299.7 71.3 327 72.3C354.3 73.3 381.7 70.7 409 70.3C436.3 70 463.7 72 491 70.8C518.3 69.7 545.7 65.3 573 60.8C600.3 56.3 627.7 51.7 654.8 54.8C682 58 709 69 736.2 70.8C763.3 72.7 790.7 65.3 818 61.2C845.3 57 872.7 56 886.3 55.5L900 55L900 101L886.3 101C872.7 101 845.3 101 818 101C790.7 101 763.3 101 736.2 101C709 101 682 101 654.8 101C627.7 101 600.3 101 573 101C545.7 101 518.3 101 491 101C463.7 101 436.3 101 409 101C381.7 101 354.3 101 327 101C299.7 101 272.3 101 245.2 101C218 101 191 101 163.8 101C136.7 101 109.3 101 82 101C54.7 101 27.3 101 13.7 101L0 101Z" fill="#ffffff" stroke-linecap="round" stroke-linejoin="miter"></path></svg>