<svg id="visual" viewBox="0 0 900 150" width="900" height="150" xmlns="http://www.w3.org/2000/svg" xmlns:xlink="http://www.w3.org/1999/xlink" version="1.1"><rect x="0" y="0" width="900" height="150" fill="#001220"></rect><path d="M0 114L11.5 112C23 110 46 106 69 102.7C92 99.3 115 96.7 138.2 95.7C161.3 94.7 184.7 95.3 207.8 98.5C231 101.7 254 107.3 277 110C300 112.7 323 112.3 346 112.7C369 113 392 114 415.2 112.2C438.3 110.3 461.7 105.7 484.8 101.3C508 97 531 93 554 90.7C577 88.3 600 87.7 623 89.5C646 91.3 669 95.7 692.2 97C715.3 98.3 738.7 96.7 761.8 96.2C785 95.7 808 96.3 831 99.7C854 103 877 109 888.5 112L900 115L900 0L888.5 0C877 0 854 0 831 0C808 0 785 0 761.8 0C738.7 0 715.3 0 692.2 0C669 0 646 0 623 0C600 0 577 0 554 0C531 0 508 0 484.8 0C461.7 0 438.3 0 415.2 0C392 0 369 0 346 0C323 0 300 0 277 0C254 0 231 0 207.8 0C184.7 0 161.3 0 138.2 0C115 0 92 0 69 0C46 0 23 0 11.5 0L0 0Z" fill="#00363a"></path><path d="M0 81L11.5 80.7C23 80.3 46 79.7 69 79C92 78.3 115 77.7 138.2 80.7C161.3 83.7 184.7 90.3 207.8 89.7C231 89 254 81 277 79.8C300 78.7 323 84.3 346 89.2C369 94 392 98 415.2 95.2C438.3 92.3 461.7 82.7 484.8 80C508 77.3 531 81.7 554 84.8C577 88 600 90 623 89.5C646 89 669 86 692.2 85.3C715.3 84.7 738.7 86.3 761.8 88C785 89.7 808 91.3 831 89.3C854 87.3 877 81.7 888.5 78.8L900 76L900 0L888.5 0C877 0 854 0 831 0C808 0 785 0 761.8 0C738.7 0 715.3 0 692.2 0C669 0 646 0 623 0C600 0 577 0 554 0C531 0 508 0 484.8 0C461.7 0 438.3 0 415.2 0C392 0 369 0 346 0C323 0 300 0 277 0C254 0 231 0 207.8 0C184.7 0 161.3 0 138.2 0C115 0 92 0 69 0C46 0 23 0 11.5 0L0 0Z" fill="#00333a"></path><path d="M0 86L11.5 83.5C23 81 46 76 69 73.7C92 71.3 115 71.7 138.2 73.2C161.3 74.7 184.7 77.3 207.8 76.5C231 75.7 254 71.3 277 72.2C300 73 323 79 346 82C369 85 392 85 415.2 81C438.3 77 461.7 69 484.8 68.3C508 67.7 531 74.3 554 78.2C577 82 600 83 623 81.3C646 79.7 669 75.3 692.2 72.7C715.3 70 738.7 69 761.8 70.5C785 72 808 76 831 75C854 74 877 68 888.5 65L900 62L900 0L888.5 0C877 0 854 0 831 0C808 0 785 0 761.8 0C738.7 0 715.3 0 692.2 0C669 0 646 0 623 0C600 0 577 0 554 0C531 0 508 0 484.8 0C461.7 0 438.3 0 415.2 0C392 0 369 0 346 0C323 0 300 0 277 0C254 0 231 0 207.8 0C184.7 0 161.3 0 138.2 0C115 0 92 0 69 0C46 0 23 0 11.5 0L0 0Z" fill="#002f39"></path><path d="M0 59L11.5 59C23 59 46 59 69 59C92 59 115 59 138.2 61C161.3 63 184.7 67 207.8 68.5C231 70 254 69 277 68.5C300 68 323 68 346 67.2C369 66.3 392 64.7 415.2 65C438.3 65.3 461.7 67.7 484.8 66.7C508 65.7 531 61.3 554 58.5C577 55.7 600 54.3 623 56.5C646 58.7 669 64.3 692.2 63.7C715.3 63 738.7 56 761.8 53.2C785 50.3 808 51.7 831 53.7C854 55.7 877 58.3 888.5 59.7L900 61L900 0L888.5 0C877 0 854 0 831 0C808 0 785 0 761.8 0C738.7 0 715.3 0 692.2 0C669 0 646 0 623 0C600 0 577 0 554 0C531 0 508 0 484.8 0C461.7 0 438.3 0 415.2 0C392 0 369 0 346 0C323 0 300 0 277 0C254 0 231 0 207.8 0C184.7 0 161.3 0 138.2 0C115 0 92 0 69 0C46 0 23 0 11.5 0L0 0Z" fill="#002c38"></path><path d="M0 45L11.5 43.5C23 42 46 39 69 40.2C92 41.3 115 46.7 138.2 47.8C161.3 49 184.7 46 207.8 43.3C231 40.7 254 38.3 277 39C300 39.7 323 43.3 346 44.7C369 46 392 45 415.2 46C438.3 47 461.7 50 484.8 51C508 52 531 51 554 51.2C577 51.3 600 52.7 623 52.2C646 51.7 669 49.3 692.2 46.7C715.3 44 738.7 41 761.8 41.7C785 42.3 808 46.7 831 47.8C854 49 877 47 888.5 46L900 45L900 0L888.5 0C877 0 854 0 831 0C808 0 785 0 761.8 0C738.7 0 715.3 0 692.2 0C669 0 646 0 623 0C600 0 577 0 554 0C531 0 508 0 484.8 0C461.7 0 438.3 0 415.2 0C392 0 369 0 346 0C323 0 300 0 277 0C254 0 231 0 207.8 0C184.7 0 161.3 0 138.2 0C115 0 92 0 69 0C46 0 23 0 11.5 0L0 0Z" fill="#002937"></path><path d="M0 32L11.5 30.2C23 28.3 46 24.7 69 23C92 21.3 115 21.7 138.2 24C161.3 26.3 184.7 30.7 207.8 31.3C231 32 254 29 277 29.7C300 30.3 323 34.7 346 36C369 37.3 392 35.7 415.2 34.7C438.3 33.7 461.7 33.3 484.8 31.5C508 29.7 531 26.3 554 25.7C577 25 600 27 623 29C646 31 669 33 692.2 34C715.3 35 738.7 35 761.8 34.2C785 33.3 808 31.7 831 30C854 28.3 877 26.7 888.5 25.8L900 25L900 0L888.5 0C877 0 854 0 831 0C808 0 785 0 761.8 0C738.7 0 715.3 0 692.2 0C669 0 646 0 623 0C600 0 577 0 554 0C531 0 508 0 484.8 0C461.7 0 438.3 0 415.2 0C392 0 369 0 346 0C323 0 300 0 277 0C254 0 231 0 207.8 0C184.7 0 161.3 0 138.2 0C115 0 92 0 69 0C46 0 23 0 11.5 0L0 0Z" fill="#002535"></path><path d="M0 8L11.5 8.7C23 9.3 46 10.7 69 12.8C92 15 115 18 138.2 17.7C161.3 17.3 184.7 13.7 207.8 12.7C231 11.7 254 13.3 277 14.5C300 15.7 323 16.3 346 17.2C369 18 392 19 415.2 20.2C438.3 21.3 461.7 22.7 484.8 21.8C508 21 531 18 554 16C577 14 600 13 623 14.2C646 15.3 669 18.7 692.2 20.2C715.3 21.7 738.7 21.3 761.8 20.7C785 20 808 19 831 18C854 17 877 16 888.5 15.5L900 15L900 0L888.5 0C877 0 854 0 831 0C808 0 785 0 761.8 0C738.7 0 715.3 0 692.2 0C669 0 646 0 623 0C600 0 577 0 554 0C531 0 508 0 484.8 0C461.7 0 438.3 0 415.2 0C392 0 369 0 346 0C323 0 300 0 277 0C254 0 231 0 207.8 0C184.7 0 161.3 0 138.2 0C115 0 92 0 69 0C46 0 23 0 11.5 0L0 0Z" fill="#002233"></path></svg>