<svg id="visual" viewBox="0 0 900 200" width="900" height="200" xmlns="http://www.w3.org/2000/svg" xmlns:xlink="http://www.w3.org/1999/xlink" version="1.1"><rect x="0" y="0" width="900" height="200" fill="#002233"></rect><path d="M0 96L13.7 90.3C27.3 84.7 54.7 73.3 82 74.7C109.3 76 136.7 90 163.8 86.2C191 82.3 218 60.7 245.2 56.3C272.3 52 299.7 65 327 75.7C354.3 86.3 381.7 94.7 409 88C436.3 81.3 463.7 59.7 491 52.3C518.3 45 545.7 52 573 61.8C600.3 71.7 627.7 84.3 654.8 88.2C682 92 709 87 736.2 87.8C763.3 88.7 790.7 95.3 818 90.2C845.3 85 872.7 68 886.3 59.5L900 51L900 0L886.3 0C872.7 0 845.3 0 818 0C790.7 0 763.3 0 736.2 0C709 0 682 0 654.8 0C627.7 0 600.3 0 573 0C545.7 0 518.3 0 491 0C463.7 0 436.3 0 409 0C381.7 0 354.3 0 327 0C299.7 0 272.3 0 245.2 0C218 0 191 0 163.8 0C136.7 0 109.3 0 82 0C54.7 0 27.3 0 13.7 0L0 0Z" fill="#ffffff" stroke-linecap="round" stroke-linejoin="miter"></path></svg>